<svg id="Layer_1" data-name="Layer 1" xmlns="http://www.w3.org/2000/svg" xmlns:xlink="http://www.w3.org/1999/xlink" viewBox="0 0 374.94 390.78"><defs><style>.cls-1,.cls-12,.cls-18,.cls-27,.cls-31{fill:none;}.cls-2,.cls-6,.cls-9{fill:#242454;}.cls-3{fill:#35356d;}.cls-4{fill:#4e4e96;}.cls-5{clip-path:url(#clip-path);}.cls-6{opacity:0.62;}.cls-7{fill:#1280ff;}.cls-8{fill:#63b1ff;}.cls-9{opacity:0.4;}.cls-10{fill:#009bff;opacity:0.5;}.cls-11{fill:url(#linear-gradient);}.cls-12{stroke:#fff;}.cls-12,.cls-18,.cls-27,.cls-31{stroke-miterlimit:10;}.cls-12,.cls-18,.cls-31{stroke-width:2px;}.cls-13{fill:#f86a9a;}.cls-14{fill:#ff8db8;}.cls-15{fill:#009b9e;}.cls-16{fill:#00cbb7;}.cls-17{fill:#007375;}.cls-18{stroke:#007375;}.cls-19{fill:#1289ff;}.cls-20{fill:#1f9aff;}.cls-21{fill:#deebf3;}.cls-22{fill:#fff;}.cls-23{clip-path:url(#clip-path-2);}.cls-24{fill:#ffde3a;}.cls-25{clip-path:url(#clip-path-3);}.cls-26{fill:#edb700;}.cls-27{stroke:#edb700;stroke-width:5px;}.cls-28{fill:#bd7800;}.cls-29{fill:#bfd3dd;}.cls-30{fill:url(#linear-gradient-2);}.cls-31{stroke:#ffde3a;}</style><clipPath id="clip-path"><polygon class="cls-1" points="347.09 336.65 326.59 315.22 310.86 298.78 298.42 285.77 244.84 285.77 191.26 285.77 137.68 285.77 84.1 285.77 71.55 298.78 55.7 315.22 35.03 336.65 6.94 365.77 6.94 390.77 374.94 390.77 374.94 365.77 347.09 336.65"/></clipPath><linearGradient id="linear-gradient" x1="131.55" y1="318.81" x2="166.52" y2="318.81" gradientUnits="userSpaceOnUse"><stop offset="0" stop-color="#0069ff" stop-opacity="0.4"/><stop offset="0.28" stop-color="#0069ff" stop-opacity="0.3"/><stop offset="0.88" stop-color="#0069ff" stop-opacity="0.05"/><stop offset="1" stop-color="#0069ff" stop-opacity="0"/></linearGradient><clipPath id="clip-path-2"><path class="cls-1" d="M125.15,142.62c0,21.34-12.85,38.62-28.72,38.62S67.7,164,67.7,142.62,80.56,104,96.43,104,125.15,121.28,125.15,142.62Z"/></clipPath><clipPath id="clip-path-3"><path class="cls-1" d="M316.14,142.62c0,21.34-12.85,38.62-28.72,38.62S258.69,164,258.69,142.62,271.55,104,287.42,104,316.14,121.28,316.14,142.62Z"/></clipPath><linearGradient id="linear-gradient-2" x1="-338.21" y1="500.59" x2="-284.43" y2="459.36" gradientTransform="matrix(0.77, 0.16, 0.16, 0.88, 226.22, -164.03)" gradientUnits="userSpaceOnUse"><stop offset="0" stop-color="#0084ff" stop-opacity="0.2"/><stop offset="0.52" stop-color="#0084ff" stop-opacity="0.1"/><stop offset="1" stop-color="#0084ff" stop-opacity="0"/></linearGradient></defs><title>PM-Sammy-V1</title><rect class="cls-2" x="6.94" y="365.78" width="368" height="25"/><polygon class="cls-3" points="131.38 298.78 71.55 298.78 84.1 285.77 137.68 285.77 131.38 298.78"/><polygon class="cls-4" points="191.21 298.78 131.38 298.78 137.68 285.77 191.26 285.77 191.21 298.78"/><polygon class="cls-3" points="251.04 298.78 191.21 298.78 191.26 285.77 244.84 285.77 251.04 298.78"/><polygon class="cls-4" points="310.86 298.78 251.04 298.78 244.84 285.77 298.42 285.77 310.86 298.78"/><polygon class="cls-3" points="251.04 298.78 310.86 298.78 326.59 315.22 258.86 315.22 251.04 298.78"/><polygon class="cls-4" points="191.21 298.78 251.04 298.78 258.86 315.22 191.14 315.22 191.21 298.78"/><polygon class="cls-3" points="131.38 298.78 191.21 298.78 191.14 315.22 123.42 315.22 131.38 298.78"/><polygon class="cls-4" points="71.55 298.78 131.38 298.78 123.42 315.22 55.7 315.22 71.55 298.78"/><polygon class="cls-3" points="113.04 336.65 35.03 336.65 55.7 315.22 123.42 315.22 113.04 336.65"/><polygon class="cls-4" points="191.06 336.65 113.04 336.65 123.42 315.22 191.14 315.22 191.06 336.65"/><polygon class="cls-3" points="269.07 336.65 191.06 336.65 191.14 315.22 258.86 315.22 269.07 336.65"/><polygon class="cls-4" points="347.09 336.65 269.07 336.65 258.86 315.22 326.59 315.22 347.09 336.65"/><polygon class="cls-3" points="269.07 336.65 347.09 336.65 374.94 365.77 282.94 365.77 269.07 336.65"/><polygon class="cls-4" points="191.06 336.65 269.07 336.65 282.94 365.77 190.94 365.77 191.06 336.65"/><polygon class="cls-3" points="113.04 336.65 191.06 336.65 190.94 365.77 98.94 365.77 113.04 336.65"/><polygon class="cls-4" points="35.03 336.65 113.04 336.65 98.94 365.77 6.94 365.77 35.03 336.65"/><g class="cls-5"><ellipse class="cls-6" cx="191.82" cy="287.38" rx="77.08" ry="17.55"/></g><path class="cls-6" d="M302.87,349.86h42a1.37,1.37,0,0,1,1,.39l4,3.94a1.42,1.42,0,0,1-1,2.45H305.63a1.38,1.38,0,0,1-1.13-.59l-2.76-3.94A1.42,1.42,0,0,1,302.87,349.86Z"/><polygon class="cls-7" points="342.27 321.05 319.96 321.05 324.28 313.13 342.27 313.13 342.27 321.05"/><rect class="cls-7" x="298.36" y="319.61" width="43.92" height="31.68"/><polygon class="cls-8" points="331.74 328.25 287.82 328.25 298.36 351.29 342.27 351.29 331.74 328.25"/><ellipse class="cls-6" cx="149.03" cy="352.86" rx="17.48" ry="4.41"/><path class="cls-9" d="M206.43,348.52l22.45,13a5.07,5.07,0,0,0,5.07,0l22.45-13a1.32,1.32,0,0,0,0-2.28l-24.32-14a1.32,1.32,0,0,0-1.32,0l-24.32,14A1.32,1.32,0,0,0,206.43,348.52Z"/><path class="cls-10" d="M149,297.61S128,313.07,128,328.86a21.08,21.08,0,0,0,42.15,0C170.11,313.63,149,297.61,149,297.61Z"/><path class="cls-7" d="M149,313.76s-14.21-.3-17.78,3.56c-2.83,3.06-3.29,7.6-3.29,11.54a21.08,21.08,0,1,0,39.44-10.19C164.3,313.15,149,313.76,149,313.76Z"/><ellipse class="cls-11" cx="149.03" cy="318.81" rx="17.48" ry="5.77"/><ellipse class="cls-8" cx="149.03" cy="318.81" rx="17.48" ry="5.77"/><line class="cls-12" x1="231.41" y1="301.51" x2="231.41" y2="321"/><polygon class="cls-13" points="207.18 331.54 207.18 341.01 231.41 355 255.63 341.01 255.63 331.54 231.41 317.56 207.18 331.54"/><polygon class="cls-14" points="207.18 331.54 231.41 345.53 255.63 331.54 231.41 317.56 207.18 331.54"/><polygon class="cls-12" points="207.18 315.5 207.18 341.01 231.41 355 255.63 341.01 255.63 315.5 231.41 301.51 207.18 315.5"/><polyline class="cls-12" points="207.18 315.87 231.41 329.86 255.63 315.87"/><line class="cls-12" x1="231.41" y1="355" x2="231.41" y2="329.86"/><ellipse class="cls-6" cx="285.03" cy="307.9" rx="3.87" ry="15.36" transform="translate(-32.85 581.74) rotate(-87.95)"/><path class="cls-15" d="M262.5,285.09a18.37,18.37,0,0,1,25.93-16.73c6.36,2.88,13.35,7.14,13.35,14.58,0,10.14-9.5,22.06-19.64,22.06-4.6,0-10.08-3.25-13.31-6A18.31,18.31,0,0,1,262.5,285.09Z"/><circle class="cls-16" cx="285.94" cy="287.69" r="18.36"/><circle class="cls-17" cx="285.94" cy="287.69" r="2.6"/><line class="cls-18" x1="285.94" y1="287.69" x2="291.04" y2="276.49"/><line class="cls-18" x1="285.94" y1="287.69" x2="292.9" y2="287.64"/><line class="cls-12" x1="285.94" y1="272.24" x2="285.94" y2="276.49"/><line class="cls-12" x1="285.94" y1="298.79" x2="285.94" y2="303.04"/><line class="cls-12" x1="270.54" y1="287.64" x2="274.8" y2="287.64"/><line class="cls-12" x1="297.09" y1="287.64" x2="301.34" y2="287.64"/><path class="cls-19" d="M107.77,177.35s25.51-.2,4,21c0,0-6.77,37.9-43.31,39.25-8.15.31-28.42-2-47.66-14,0,0-8.52-5-9-9.88-.26-3.58,6.57-2,22.42-1.84,0,0,22.87,2.29,35.55-2.07C81.29,207.16,92,198.72,83.6,190.77,83.6,190.77,86.26,169.92,107.77,177.35Z"/><path class="cls-20" d="M48.58,225s47.82,6.32,59.1-32.93l2.49-14.57c-1.42-.14-2.4-.14-2.4-.14-21.51-7.43-24.17,13.42-24.17,13.42,8.42,7.95-2.31,16.4-13.82,19.11-12.64,3.39-35.55,2.06-35.55,2.06-11.06-.12-17.72-.92-20.65-.17C11.84,214.37,19.45,222,48.58,225Z"/><path class="cls-19" d="M275.87,179.59s-25.51-.2-4,21c0,0,6.77,37.9,43.31,39.25,8.14.3,17.71-.89,30.21-6.56a11.15,11.15,0,0,1-2.68-8.09c.26-3.58,6.66-11,6.66-11s-22.86,2.29-35.55-2.07C302.35,209.41,291.62,201,300,193,300,193,297.38,172.16,275.87,179.59Z"/><path class="cls-20" d="M335.05,227.23s-47.82,6.32-59.1-32.93l-2.49-14.57c1.41-.14,2.4-.14,2.4-.14C297.38,172.15,300,193,300,193c-8.42,7.95,2.31,16.4,13.82,19.11,12.65,3.39,35.55,2.06,35.55,2.06s-11.37,8.27-8.44,9C342.71,225.8,364.19,224.22,335.05,227.23Z"/><path class="cls-20" d="M163.45,100.29a195.53,195.53,0,0,1,13.66-53.44c6.13-14.82,16-34.71,27.49-44.11,2.46-1.91,6.3-3.38,8.52-2.48s4,4,3,10.4c-1.33,9-8.9,74.62,2.46,144.45Z"/><path class="cls-19" d="M313.82,104.09c-27-36.47-113-34.57-122.84-34.23-9.83-.34-95.88-2.25-122.84,34.23-12.62,16-8.74,40.95-6.85,56,0,0,3.16,17.38,7.69,30.7,12.64,37.12,35.62,72.39,120.85,73.8v.05l1.15,0,1.15,0v-.05c85.22-1.41,109.14-44.16,120.84-73.8,4.93-12.48,7.46-29.3,7.46-29.3C323,145.87,326.44,120.07,313.82,104.09Z"/><path class="cls-21" d="M296,224.12c-7.56-2.52-13.7-12.34-21.26-19.92-11.59-11.62-20.06-16.83-27.4-20.19-19.89-9.11-43.58-9.54-56.78-9.54,0,0-35.09-1-56.79,9.54-7.26,3.54-15.82,8.58-27.4,20.19-7.56,7.58-13.7,17.39-21.26,19.92,0,0,23.82,45.71,105.43,45.71h0C271.75,269.83,296,224.12,296,224.12Z"/><path class="cls-20" d="M322.36,138.59c.53-12-1-24.91-8.54-34.5C286.86,67.61,201.27,69.36,191,69.36c-9.9,0-95.88-1.75-122.84,34.72-7.57,9.6-9.07,22.51-8.54,34.5Z"/><path class="cls-22" d="M125.15,142.62c0,21.34-12.85,38.62-28.72,38.62S67.7,164,67.7,142.62,80.56,104,96.43,104,125.15,121.28,125.15,142.62Z"/><path class="cls-22" d="M316.14,142.62c0,21.34-12.85,38.62-28.72,38.62S258.69,164,258.69,142.62,271.55,104,287.42,104,316.14,121.28,316.14,142.62Z"/><g class="cls-23"><path class="cls-24" d="M120.17,157c0,17.21-10.39,31.17-23.2,31.17s-23.21-14-23.21-31.17S84.15,125.79,97,125.79,120.17,139.76,120.17,157Z"/><path class="cls-3" d="M114.36,159.83c0,12.33-7.42,22.31-16.58,22.31s-16.59-10-16.59-22.31,7.42-22.32,16.59-22.32S114.36,147.49,114.36,159.83Z"/><path class="cls-22" d="M96.46,155a5.58,5.58,0,1,1-5.57-5.66A5.62,5.62,0,0,1,96.46,155Z"/></g><path class="cls-14" d="M259.67,206.51c-16.2.47-34.26,6.15-70.16,6.17s-54-5.7-70.16-6.17c-11-.32-9,7.8-5.4,13.17,20.5,30.31,65.26,32.79,75.39,32.83h.33c10.13,0,54.89-2.52,75.39-32.83C268.7,214.31,270.72,206.19,259.67,206.51Z"/><path class="cls-13" d="M189.34,252.52h.33c8.59,0,42.08-1.83,64.56-20.86-18-5.25-40.71-8.38-65.35-8.38-24.21,0-46.53,3-64.42,8.11,22.48,19.27,56.24,21.09,64.87,21.13Z"/><path class="cls-22" d="M156,237.71c-2.5-1.36-7.41,1-11.36,3.34-.21-7.54-2.52-8.69-2.52-8.69-2.4-1.29-7,.78-10.86,3.05.21-9.43-2.53-10.79-2.53-10.79-2-1.09-6,0-9.39,1.78,3.31,4.6,10.28,9.77,17.68,13.76,7.81,4.21,16.1,7.14,21.44,8.13C158.84,238.05,156,237.71,156,237.71Z"/><g class="cls-25"><path class="cls-24" d="M311.16,157c0,17.21-10.39,31.17-23.2,31.17s-23.21-14-23.21-31.17,10.39-31.23,23.21-31.23S311.16,139.76,311.16,157Z"/><path class="cls-3" d="M305.35,159.83c0,12.33-7.42,22.31-16.58,22.31s-16.59-10-16.59-22.31,7.42-22.32,16.59-22.32S305.35,147.49,305.35,159.83Z"/><path class="cls-22" d="M300.92,155a5.58,5.58,0,1,1-5.57-5.66A5.62,5.62,0,0,1,300.92,155Z"/></g><path class="cls-9" d="M84.9,304h29.52a1.11,1.11,0,0,1,.87,1.8l-1.4,1.78a3.8,3.8,0,0,1-3,1.45H81.05a1.11,1.11,0,0,1-.8-1.88l1.92-2A3.8,3.8,0,0,1,84.9,304Z"/><path class="cls-26" d="M88.75,276l-7.2,4,27.32,2-3.49,22.49h3.68a6.7,6.7,0,0,0,4.91-2.15h0a5.84,5.84,0,0,0,1.55-4V280.68a4.73,4.73,0,0,0-4.73-4.73Z"/><rect class="cls-24" x="80.34" y="278.87" width="31.66" height="25.61" rx="4.32" ry="4.32"/><path class="cls-27" d="M90.29,278v-4.89a8.31,8.31,0,0,1,8.31-8.31h0a8.31,8.31,0,0,1,8.31,8.31V278"/><circle class="cls-28" cx="96.17" cy="289.81" r="3.29"/><rect class="cls-28" x="94.83" y="290.63" width="2.68" height="7.62"/><path class="cls-9" d="M46.1,358.36H35.46a.71.71,0,0,1-.48-1.22l4.66-4.36H50.8a.71.71,0,0,1,.54,1.17l-2.88,3.34A3.11,3.11,0,0,1,46.1,358.36Z"/><path class="cls-9" d="M67,358.36H56.64a.69.69,0,0,1-.47-1.2l4.6-4.26h10.9A.69.69,0,0,1,72.2,354l-2.86,3.27A3,3,0,0,1,67,358.36Z"/><path class="cls-9" d="M88,358.36H77.63a.69.69,0,0,1-.47-1.19l4.56-4.27H92.63a.69.69,0,0,1,.52,1.14l-2.81,3.26A3,3,0,0,1,88,358.36Z"/><rect class="cls-14" x="34.94" y="343.47" width="12" height="9.3"/><rect class="cls-24" x="55.94" y="332.17" width="12" height="20.6"/><polygon class="cls-22" points="46.94 343.47 34.94 343.47 40.11 338.63 51.11 338.63 46.94 343.47"/><polygon class="cls-22" points="67.94 332.17 55.94 332.17 61.16 327.33 72.16 327.33 67.94 332.17"/><rect class="cls-16" x="76.94" y="317.15" width="12" height="35.62"/><polygon class="cls-22" points="88.94 317.15 76.94 317.15 82.11 312.32 93.11 312.32 88.94 317.15"/><polygon class="cls-13" points="46.94 343.47 51.11 338.63 51.11 347.94 46.94 352.77 46.94 343.47"/><polygon class="cls-26" points="67.94 332.17 72.11 327.33 72.11 347.94 67.94 352.77 67.94 332.17"/><polygon class="cls-15" points="88.94 317.15 93.11 312.32 93.11 347.94 88.94 352.77 88.94 317.15"/><rect class="cls-2" x="333.5" y="199.51" width="14" height="52" transform="translate(-42.84 84.63) rotate(-13.34)"/><path class="cls-13" d="M340.44,250.7h14a0,0,0,0,1,0,0v3.76A4.44,4.44,0,0,1,350,258.9h-5.13a4.44,4.44,0,0,1-4.44-4.44V250.7A0,0,0,0,1,340.44,250.7Z" transform="translate(-49.41 87.02) rotate(-13.34)"/><path class="cls-29" d="M327.69,201.83l13.62-3.23-9.5-14.67a1.21,1.21,0,0,0-2.22.53Z"/><path class="cls-2" d="M329,189.43l5.49-1.3-2.72-4.2a1.21,1.21,0,0,0-2.22.53Z"/><rect class="cls-4" x="333.59" y="200.32" width="7" height="52" transform="translate(-43.12 83.86) rotate(-13.34)"/><ellipse class="cls-19" cx="347.38" cy="223.27" rx="10.55" ry="9.4" transform="translate(-61.45 165.17) rotate(-24.64)"/><ellipse class="cls-20" cx="345.18" cy="218.47" rx="7.15" ry="4.13" transform="translate(-59.66 163.81) rotate(-24.64)"/><path class="cls-2" d="M38.43,179.62h6.48a0,0,0,0,1,0,0V265.2a0,0,0,0,1,0,0H38.43a3.2,3.2,0,0,1-3.2-3.2V182.82A3.2,3.2,0,0,1,38.43,179.62Z" transform="translate(-122.93 65.87) rotate(-35.95)"/><polygon class="cls-30" points="61.49 243.7 112.45 230.55 52.79 155.76 25.29 193.77 61.49 243.7"/><line class="cls-31" x1="1.62" y1="180.7" x2="7.57" y2="185.32"/><line class="cls-31" x1="6.81" y1="190.73" x2="0.54" y2="194.7"/><line class="cls-31" x1="13.67" y1="175.68" x2="12.62" y2="183.24"/><ellipse class="cls-19" cx="27.46" cy="222.83" rx="9.4" ry="18.58" transform="translate(-164.79 106.87) rotate(-51.88)"/><ellipse class="cls-20" cx="30.71" cy="218.68" rx="4.13" ry="12.59" transform="translate(-160.28 107.84) rotate(-51.88)"/></svg>